<?xml version="1.0" encoding="UTF-8" standalone="no"?>
<!DOCTYPE svg PUBLIC "-//W3C//DTD SVG 1.1//EN" "http://www.w3.org/Graphics/SVG/1.1/DTD/svg11.dtd">
<svg width="100%" height="100%" viewBox="0 0 2000 2000" version="1.1" xmlns="http://www.w3.org/2000/svg" xmlns:xlink="http://www.w3.org/1999/xlink" xml:space="preserve" xmlns:serif="http://www.serif.com/" style="fill-rule:evenodd;clip-rule:evenodd;stroke-linecap:round;stroke-linejoin:round;stroke-miterlimit:1.5;">
    <g transform="matrix(-1.23691,0.00154859,-0.00154859,-1.23691,2932.84,1771.42)">
        <g transform="matrix(0.61796,-0.61796,0.514268,0.514268,541.781,800.942)">
            <path d="M640,544.114C640,497.69 608.634,460 570,460C531.366,460 500,497.69 500,544.114L500,935.886C500,982.31 531.366,1020 570,1020C608.634,1020 640,982.31 640,935.886L640,544.114Z" style="fill:rgb(0,138,203);stroke:rgb(0,138,203);stroke-width:1.01px;"/>
        </g>
        <g transform="matrix(0.61796,0.61796,-0.489489,0.489489,1277.62,-80.7734)">
            <path d="M723.185,1020.9C629.328,986.173 639.037,873.811 639.037,841.124L640,548.372C640,499.598 608.634,460 570,460C531.366,460 500,499.598 500,548.372L500,931.628C500,980.402 531.366,1020 570,1020" style="fill:rgb(0,118,173);stroke:rgb(0,142,208);stroke-width:1.03px;"/>
        </g>
    </g>
    <g transform="matrix(1.23691,-0.00154859,0.00154859,1.23691,-970.409,-42.4611)">
        <g transform="matrix(0.61796,-0.61796,0.514268,0.514268,541.781,800.942)">
            <path d="M640,544.114C640,497.69 608.634,460 570,460C531.366,460 500,497.69 500,544.114L500,935.886C500,982.31 531.366,1020 570,1020C608.634,1020 640,982.31 640,935.886L640,544.114Z" style="fill:rgb(0,138,203);stroke:rgb(0,138,203);stroke-width:1.01px;"/>
        </g>
        <g transform="matrix(0.61796,0.61796,-0.489489,0.489489,1277.62,-80.7734)">
            <path d="M723.185,1020.9C629.328,986.173 639.037,873.811 639.037,841.124L640,548.372C640,499.598 608.634,460 570,460C531.366,460 500,499.598 500,548.372L500,931.628C500,980.402 531.366,1020 570,1020" style="fill:rgb(0,118,173);stroke:rgb(0,142,208);stroke-width:1.03px;"/>
        </g>
    </g>
    <g transform="matrix(1,0,0,1,35.0562,6)">
        <path d="M811.184,1279.66C804.784,1280.71 797.746,1282.3 790.019,1284.52C769.716,1290.26 752.489,1299.4 741.357,1309.99C728.53,1322.2 723.598,1336.69 727.521,1351.35C731.993,1368.15 742.22,1377.66 755.328,1383.49C773.997,1391.79 800.578,1390.51 824.206,1393.47C840.406,1395.5 855.234,1399.75 859.212,1418.76C862.278,1433.4 848.598,1440.17 832.258,1442.34C815.725,1444.53 795.541,1441.04 776.153,1431.74C766.074,1427.24 754.237,1431.77 749.737,1441.85C745.237,1451.93 749.767,1463.76 759.847,1468.26C794.264,1482.51 829.855,1483.05 854.385,1473.61C882.756,1462.68 898.618,1440.54 890.788,1411.24C886.046,1393.5 877.022,1382.35 865.324,1375.33C846.25,1363.87 818.769,1364.57 793.32,1363.9C774.466,1363.4 756.291,1363.13 750.366,1344.65C747.631,1336.08 753.337,1328.15 762.18,1320.99C770.813,1313.99 782.519,1307.95 795.868,1303.48C799.701,1302.21 803.312,1301.11 806.711,1300.18C806.322,1303.28 806.163,1306.11 806.242,1308.69C806.743,1325.01 814.691,1333.79 832.951,1336.55C845.771,1338.49 857.935,1330.59 864.167,1319.99C868.952,1311.86 869.926,1302.28 866.268,1294.32C862.098,1285.24 849.826,1276.77 824.7,1278.14C830.49,1255.81 841.208,1225.44 854.126,1185.44C854.922,1183.13 853.695,1180.62 851.387,1179.82C849.079,1179.02 846.559,1180.25 845.762,1182.56C830.196,1224.92 817.71,1256.66 811.184,1279.66ZM820.75,1296.95C819.479,1305.75 819.667,1312.16 822.83,1316.42C825.155,1319.55 829.247,1320.81 834.937,1321.45C841.693,1322.21 847.53,1317.05 850.308,1311.27C852.602,1306.5 852.321,1300.72 846.425,1298C840.897,1295.45 832.599,1294.88 820.75,1296.95Z" style="fill:rgb(0,170,249);"/>
    </g>
    <g>
        <g transform="matrix(1,0,0,1,407.037,-65.7357)">
            <g transform="matrix(290.378,0,0,290.378,515,1487)">
                <path d="M0.542,-0.485L0.403,-0.485L0.283,-0.079L0.161,-0.485L0.022,-0.485L0.215,0.149L0.151,0.368L0.289,0.368L0.542,-0.485Z" style="fill:white;fill-rule:nonzero;"/>
            </g>
            <g transform="matrix(290.378,0,0,290.378,676.45,1487)">
                <path d="M0.474,0.151L0.624,0.151L0.414,-0.7L0.251,-0.7L0.033,0.151L0.184,0.151L0.215,0.021L0.444,0.021L0.474,0.151ZM0.328,-0.453L0.336,-0.453L0.415,-0.105L0.245,-0.105L0.328,-0.453Z" style="fill:white;fill-rule:nonzero;"/>
            </g>
            <g transform="matrix(290.378,0,0,290.378,870.132,1487)">
                <path d="M0.043,-0.485L0.043,0.368L0.187,0.368L0.187,0.134C0.217,0.145 0.251,0.151 0.288,0.151L0.328,0.151C0.473,0.151 0.563,0.059 0.563,-0.082L0.563,-0.253C0.563,-0.394 0.473,-0.485 0.328,-0.485L0.043,-0.485ZM0.328,-0.342C0.381,-0.342 0.42,-0.303 0.42,-0.249L0.42,-0.086C0.42,-0.032 0.381,0.007 0.328,0.007L0.277,0.007C0.224,0.007 0.187,-0.032 0.187,-0.086L0.187,-0.342L0.328,-0.342Z" style="fill:white;fill-rule:nonzero;"/>
            </g>
            <g transform="matrix(290.378,0,0,290.378,1043.78,1487)">
                <path d="M0.043,-0.485L0.043,0.368L0.187,0.368L0.187,0.134C0.217,0.145 0.251,0.151 0.288,0.151L0.328,0.151C0.473,0.151 0.563,0.059 0.563,-0.082L0.563,-0.253C0.563,-0.394 0.473,-0.485 0.328,-0.485L0.043,-0.485ZM0.328,-0.342C0.381,-0.342 0.42,-0.303 0.42,-0.249L0.42,-0.086C0.42,-0.032 0.381,0.007 0.328,0.007L0.277,0.007C0.224,0.007 0.187,-0.032 0.187,-0.086L0.187,-0.342L0.328,-0.342Z" style="fill:white;fill-rule:nonzero;"/>
            </g>
        </g>
        <g transform="matrix(1,0,0,1,-147.584,-65.7357)">
            <g transform="matrix(290.378,0,0,290.378,515,1487)">
                <path d="M0.225,-0.204L0.649,-0.204L0.649,-0.346L0.225,-0.346L0.225,-0.556L0.649,-0.556L0.649,-0.7L0.064,-0.7L0.064,0.151L0.649,0.151L0.649,0.007L0.225,0.007L0.225,-0.204Z" style="fill:white;fill-rule:nonzero;"/>
            </g>
            <g transform="matrix(290.378,0,0,290.378,721.749,1487)">
                <path d="M0.182,-0.284C0.193,-0.324 0.215,-0.343 0.283,-0.343L0.314,-0.343C0.403,-0.343 0.415,-0.298 0.415,-0.238L0.415,-0.225L0.201,-0.225C0.094,-0.225 0.032,-0.146 0.032,-0.041C0.032,0.063 0.092,0.151 0.204,0.151L0.559,0.151L0.559,-0.268C0.559,-0.376 0.485,-0.485 0.336,-0.485L0.261,-0.485C0.116,-0.485 0.045,-0.39 0.038,-0.284L0.182,-0.284ZM0.166,-0.041C0.166,-0.084 0.188,-0.105 0.209,-0.105L0.415,-0.105L0.415,0.022L0.209,0.022C0.188,0.022 0.166,0.001 0.166,-0.041Z" style="fill:white;fill-rule:nonzero;"/>
            </g>
        </g>
        <g>
            <g transform="matrix(-0.736036,-0.248249,0.341742,-1.01324,1114.07,2655.62)">
                <path d="M883,1169L930,1246L836,1246L883,1169Z" style="fill:white;"/>
            </g>
            <g transform="matrix(0.533164,0.171135,-0.409763,1.2766,993.836,-187.601)">
                <path d="M640,504.654L500,504.654L498.995,978.343L633.96,979.073L640,504.654Z" style="fill:white;"/>
            </g>
            <g transform="matrix(0.934379,0.290425,-0.462951,1.48944,328.722,-479.04)">
                <path d="M1098,479.5C1098,460.998 1079.87,446 1057.5,446C1035.13,446 1017,460.998 1017,479.5L1098,479.5Z" style="fill:white;"/>
            </g>
        </g>
    </g>
</svg>
